<?xml version="1.0" encoding="iso-8859-1"?>
<!-- Generator: Adobe Illustrator 19.0.0, SVG Export Plug-In . SVG Version: 6.00 Build 0)  -->
<svg version="1.1" id="Capa_1" xmlns="http://www.w3.org/2000/svg" xmlns:xlink="http://www.w3.org/1999/xlink" x="0px" y="0px"
	 viewBox="0 0 454.656 454.656" style="enable-background:new 0 0 454.656 454.656;" xml:space="preserve">
<g>
	<g>
		<path d="M227.328,132.096c-52.736,0-95.232,42.496-95.232,95.232c0,52.736,42.496,95.232,95.232,95.232
			c52.736,0,95.232-42.496,95.232-95.232C322.56,174.592,280.064,132.096,227.328,132.096z"/>
	</g>
</g>
<g>
	<g>
		<rect x="211.968" width="30.72" height="98.304"/>
	</g>
</g>
<g>
	<g>
		<rect x="211.968" y="356.352" width="30.72" height="98.304"/>
	</g>
</g>
<g>
	<g>
		<rect x="356.352" y="211.968" width="98.304" height="30.72"/>
	</g>
</g>
<g>
	<g>
		<rect y="211.968" width="98.304" height="30.72"/>
	</g>
</g>
<g>
	<g>
		
			<rect x="337.924" y="304.15" transform="matrix(0.7071 -0.7071 0.7071 0.7071 -146.3475 353.2888)" width="30.72" height="98.303"/>
	</g>
</g>
<g>
	<g>
		<rect x="86.217" y="52.149" transform="matrix(0.7071 -0.7071 0.7071 0.7071 -41.8788 101.4962)" width="30.72" height="98.303"/>
	</g>
</g>
<g>
	<g>
		
			<rect x="52.276" y="337.792" transform="matrix(0.7071 -0.7071 0.7071 0.7071 -220.0085 175.1557)" width="98.303" height="30.72"/>
	</g>
</g>
<g>
	<g>
		<rect x="304.282" y="86.065" transform="matrix(0.7071 -0.7071 0.7071 0.7071 31.8001 279.6218)" width="98.303" height="30.72"/>
	</g>
</g>
<g>
</g>
<g>
</g>
<g>
</g>
<g>
</g>
<g>
</g>
<g>
</g>
<g>
</g>
<g>
</g>
<g>
</g>
<g>
</g>
<g>
</g>
<g>
</g>
<g>
</g>
<g>
</g>
<g>
</g>
</svg>
